<svg xmlns="http://www.w3.org/2000/svg" viewBox="0 0 512 512" fill="#6f42f5">
  <path d="M295.76 229.03a31.77 31.77 0 0 0-22.62-9.37 31.78 31.78 0 0 0-17.14 4.96 31.78 31.78 0 0 0-17.14-4.96 31.78 31.78 0 0 0-22.62 9.37 31.78 31.78 0 0 0-9.37 22.62c0 8.55 3.33 16.58 9.37 22.62l34.28 34.28a7.73 7.73 0 0 0 10.97 0l34.27-34.28a32.03 32.03 0 0 0 0-45.24zM284.8 263.3L256 292.1l-28.79-28.8a16.37 16.37 0 0 1-4.83-11.65c0-4.4 1.72-8.54 4.83-11.65a16.36 16.36 0 0 1 11.65-4.83c4.4 0 8.54 1.72 11.66 4.83a7.76 7.76 0 0 0 10.97 0 16.36 16.36 0 0 1 11.65-4.83 16.5 16.5 0 0 1 11.65 28.13z"/>
  <path d="M504.24 471.14h-23.27V316.96l10.28 3.74a7.75 7.75 0 1 0 5.3-14.59l-113.78-41.37a7.76 7.76 0 0 0-5.3 14.58l87.98 32v159.82h-108.6v-231.4l7.7 7 .15.12a8.54 8.54 0 0 0 1.52 1.03 8.16 8.16 0 0 0 1.05.45l.31.1c.14.04.27.08.4.1l.32.08.46.07.27.04.75.03c.8 0 1.6-.12 2.33-.35l.1-.04.62-.23.25-.12.45-.22.28-.18c.13-.08.26-.15.38-.24l.28-.2a7.58 7.58 0 0 0 .93-.84l.12-.12.1-.13a8.5 8.5 0 0 0 .49-.61l.22-.33a7.51 7.51 0 0 0 .37-.66l.16-.34a7 7 0 0 0 .15-.35l.13-.36.1-.35.1-.38a7.03 7.03 0 0 0 .19-1.53V199.63v-.17a8.41 8.41 0 0 0-.2-1.55l-.08-.35-.11-.37-.13-.35a7.72 7.72 0 0 0-.3-.7l-.18-.32a7.8 7.8 0 0 0-.2-.34l-.2-.3-.23-.31a8.77 8.77 0 0 0-.79-.87l-.11-.12L263.76 92.76V62.58h12.93a7.76 7.76 0 1 0 0-15.52h-12.93V33.1a7.76 7.76 0 0 0-15.52 0v13.96h-12.93a7.76 7.76 0 0 0 0 15.52h12.93v30.18L137 193.88l-.12.12a7.66 7.66 0 0 0-1.01 1.18l-.2.3-.2.34a6.74 6.74 0 0 0-.34.67l-.14.36-.13.33-.11.39-.09.34-.07.39a7.64 7.64 0 0 0-.12 1.15V238.93c0 .35.03.69.07 1.02a7.74 7.74 0 0 0 12.9 6.8l7.71-7.02v231.41H46.55V311.32l87.98-32a7.76 7.76 0 1 0-5.3-14.58L15.44 306.11a7.76 7.76 0 1 0 5.3 14.58l10.28-3.73v154.18H7.76a7.76 7.76 0 0 0 0 15.52h496.48a7.76 7.76 0 1 0 0-15.52zM149.98 223.47v-20.41L256 106.67l106.02 96.39v20.4l-100.8-91.63-.02-.01a7.76 7.76 0 0 0-.47-.39l-.13-.1a7.1 7.1 0 0 0-.5-.33c-.05-.04-.1-.08-.15-.1-.14-.1-.3-.16-.44-.24l-.24-.13-.3-.12c-.14-.06-.27-.12-.4-.16l-.12-.04a7.77 7.77 0 0 0-1.34-.32h-.08a7.67 7.67 0 0 0-4.1.56l-.2.08-.3.16-.38.2-.18.12-.47.31-.14.12a7.4 7.4 0 0 0-.46.38l-.02.01-100.8 91.64zm98.26 247.67h-25.86v-74.99a33.67 33.67 0 0 1 25.86-32.7v107.7zm41.38 0h-25.86V363.45a33.67 33.67 0 0 1 25.86 32.7v75zm51.71 0h-36.2v-74.99A49.19 49.19 0 0 0 256 347.02a49.19 49.19 0 0 0-49.13 49.13v75h-36.2V225.62L256 148.05l85.33 77.58v245.51z"/>
  <path d="M100.85 326.33a28.48 28.48 0 0 0-28.44 28.45v62.06a7.76 7.76 0 0 0 7.75 7.76h41.38a7.76 7.76 0 0 0 7.75-7.76v-62.06a28.48 28.48 0 0 0-28.44-28.45zm12.93 82.75H87.92v-54.3c0-7.13 5.8-12.93 12.93-12.93s12.93 5.8 12.93 12.93v54.3zM411.15 326.33a28.48 28.48 0 0 0-28.44 28.45v62.06a7.76 7.76 0 0 0 7.76 7.76h41.37a7.76 7.76 0 0 0 7.76-7.76v-62.06a28.48 28.48 0 0 0-28.45-28.45zm12.93 82.75h-25.86v-54.3c0-7.13 5.8-12.93 12.93-12.93s12.93 5.8 12.93 12.93v54.3z"/>
</svg>
